<svg id="Layer_1" enable-background="new 0 0 512 512" height="512" viewBox="0 0 512 512" width="512" xmlns="http://www.w3.org/2000/svg"><g><path d="m345 0h-68.787l83.787 83.787v-68.787c0-8.284-6.716-15-15-15z"/><path d="m270 36.213v53.787h53.787z"/><path d="m240 105v-105h-225c-8.284 0-15 6.716-15 15v482c0 8.284 6.716 15 15 15h330c8.284 0 15-6.716 15-15v-377h-105c-8.284 0-15-6.716-15-15zm45 345.001h-210c-8.284 0-15-6.716-15-15s6.716-15 15-15h210c8.284 0 15 6.716 15 15s-6.716 15-15 15zm-225-75c0-8.284 6.716-15 15-15h149.248c8.284 0 15 6.716 15 15s-6.716 15-15 15h-149.248c-8.284 0-15-6.715-15-15zm225-45h-210c-8.284 0-15-6.716-15-15s6.716-15 15-15h210c8.284 0 15 6.716 15 15s-6.716 15-15 15zm-225-75c0-8.284 6.716-15 15-15h149.248c8.284 0 15 6.716 15 15s-6.716 15-15 15h-149.248c-8.284 0-15-6.715-15-15zm240-60c0 8.284-6.716 15-15 15h-210c-8.284 0-15-6.716-15-15s6.716-15 15-15h210c8.284 0 15 6.716 15 15z"/><path d="m464.004 7.523c-2.677-4.654-7.636-7.523-13.004-7.523s-10.327 2.869-13.004 7.523l-41.674 72.477h109.356z"/><path d="m390 110h122v291h-122z"/><path d="m390 467c0 24.813 20.187 45 45 45h32c24.813 0 45-20.187 45-45v-36h-122z"/></g></svg>