<?xml version="1.0" encoding="utf-8"?>
<!-- Generator: Adobe Illustrator 22.1.0, SVG Export Plug-In . SVG Version: 6.00 Build 0)  -->
<svg version="1.1" id="Слой_1" xmlns="http://www.w3.org/2000/svg" xmlns:xlink="http://www.w3.org/1999/xlink" x="0px" y="0px"
	 viewBox="0 0 60 60" style="enable-background:new 0 0 60 60;" xml:space="preserve">
<style type="text/css">
	.st0{fill:none;stroke:#000000;stroke-miterlimit:10;}
	.st1{fill:#FFFFFF;}
	.st2{font-family:'MicrosoftSansSerif';}
	.st3{font-size:44px;}
</style>
<g id="XMLID_1_">
	<g>
		<path d="M49.6,60H10.4C4.6,60,0,55.4,0,49.6V10.4C0,4.6,4.6,0,10.4,0h39.3C55.4,0,60,4.6,60,10.4v39.3C60,55.4,55.4,60,49.6,60z"
			/>
	</g>
	<g>
		<path class="st0" d="M49.6,60H10.4C4.6,60,0,55.4,0,49.6V10.4C0,4.6,4.6,0,10.4,0h39.3C55.4,0,60,4.6,60,10.4v39.3
			C60,55.4,55.4,60,49.6,60z"/>
	</g>
</g>
<text transform="matrix(1 0 0 1 14.8589 44.4146)" class="st1 st2 st3">N</text>
</svg>
